<?xml version="1.0" encoding="utf-8"?>
<!-- Generator: Adobe Illustrator 19.2.1, SVG Export Plug-In . SVG Version: 6.00 Build 0)  -->
<svg version="1.1" id="layer" xmlns="http://www.w3.org/2000/svg" xmlns:xlink="http://www.w3.org/1999/xlink" x="0px" y="0px"
	 viewBox="0 0 652 652" style="enable-background:new 0 0 652 652;" xml:space="preserve">
<style type="text/css">
	.st0{fill:#221915;}
</style>
<path class="st0" d="M248.4,323.5h-6.3v-24.2c7.4,0,13.7-0.3,13.7,8.5C255.8,315.2,256.4,323.5,248.4,323.5 M216,391h39.7
	c28.1,0,28.1-26.6,28.1-35.8c0-1.4,0-18.5-14.3-22.9c12.6-7.3,11.5-22.2,11.5-29.4c0-0.8,0-23.2-24.9-23.2H216V391 M242.1,371.1
	v-28.5c10.4,0.4,15,0.1,15,13.3C257.1,371.5,253.4,371.1,242.1,371.1"/>
<path class="st0" d="M318.9,317.4c4.6,0,4.6,6.1,4.6,8.3v41.2c0,2.4,0.3,8.3-4.6,8.3c-5.2,0-5.2-5.9-5.2-8v-41.8
	C313.7,323.5,313.7,317.4,318.9,317.4 M319.3,393.2c28.9,0,28.9-23.5,28.9-26v-36.6c0-9,0-29.8-28.9-29.8
	c-29.9,0-29.9,20.8-29.9,26.2v40.3C289.4,371.5,289.4,393.2,319.3,393.2"/>
<path class="st0" d="M556.5,303h5v-18.3h24.3V303h6.4v18h-6.4v44.3c0,8.8,1.3,8.2,6.7,8.7l0.1,17.2c-2.7,1.4-9.4,1.4-12.6,1.4
	c-6.9,0-18.6-1.7-18.6-18.2V321h-5V303z"/>
<path class="st0" d="M387.1,319.8c3.9,0,3.9,5,3.9,7.3v40c0,5.3-1.3,7.6-3.6,7.6c-3.2,0-6.1-3.4-6.1-11.9v-32.3
	C381.2,326.8,382.7,319.8,387.1,319.8 M356.7,391h24.1v-8.1c1.5,3.2,7,10.2,17.2,10.4c17.9-0.1,18-18,18-28.7v-40.8
	c0-4.8,0-22.9-17.9-22.9c-8.7,0-14.4,7.3-17.1,11.6v-32.7h-24.3V391z"/>
<path class="st0" d="M482.9,336.1h-24v-11.5c0,0,0-6.9-5.1-6.9c-4.9,0-4.9,6.6-4.9,11.6v35.2c0,5.6,0,11.5,4.9,11.5
	c5.1,0,5.1-5,5.1-11.5V353h24c-0.3,18.9,2.5,40.1-29.2,40.1c-29.4,0-29.7-22.9-29.7-32.2v-29.8c0-8.7,0-30.5,29.8-30.5
	C480.9,300.7,483.2,315.6,482.9,336.1"/>
<path class="st0" d="M515.1,358.8c0-6.9,5.4-8.9,10.1-12.3v15.2c0,7.8-0.6,11.2-5.7,11.2c-2.3,0-4.5-1.5-4.5-4.6V358.8 M525.2,391
	h24.3v-65.1c0-17.7-14.8-24-29.4-24c-14.6,0-29.4,6.3-29.4,24v6.2h24.3v-7.7c0-3.5,1.1-6.5,5.1-6.5c4,0,5.1,2.9,5.1,6.5
	c0,16.3-34.5,13.5-34.5,36.6V374c0,11.5,6.5,18,17.1,18c9.7,0,14.2-5.1,17.1-11.4h0.3V391z"/>
<path class="st0" d="M29.5,240c5.8,11.6,8.7,18.9,21.5,26.4c12.9,7.5,14.8,6.4,16.1,6.9c1.4,0.5,2.1,2.2,2.1,3.1
	c2.9,0,13.7-1.5,18.7-1.2c5.2,0.4,16.9,2.1,25,4.6c5.7,1.8,13.1,4.5,14.2,4.9c1.1,0.4,3.1,1.2,4.5-0.4c1.4-1.6-0.3-2.2,7.4-5.2
	c7.6-3,15.1-6.9,17.6-8.2c2.4-1.2,11.6-6.2,20.7-15c1.1-1.1,1.4-1.5,1.9-1c0.6,0.5,0.1,1.2-0.1,1.8c-2.3,6.4-8.3,18-10,20.9
	c-1.8,2.9-11.2,13.3-12.5,14.6c-1.4,1.2-6.5,5.6-6.5,5.6s-4.6,3.7-0.4,6.7c4.2,3,2.5,6.2-0.7,8.4c-3.1,2.2-10.9,7.4-17.7,6.6
	c-6.8-0.8-4.8,0-8.9-2c-1.4-0.7-3.4-0.7-2.6,0.6c0.8,1.2,0.4,1.6,0.4,1.6c-1.2,4.8-1.3,12.1-0.6,14.7c0.7,2.6,1.5,4.7,2.9,6.3
	c0.6,0.7,1.4,1.2-0.5,1.2c-1.6,0-2.2-0.5-3.3-1.4c-1.9-0.3-6.8-1.1-9,0.6c-2.2,1.6-0.7,1.2-5,2.1c-1.4,0.7-2.3,1.8-0.3,4.1
	c2.1,2.4,3.7,3.7,4.5,4.4c0.7,0.5,3.7,1.1-0.3,3.6c-4,2.5-8.2,5.6-17.9,4.9c-9.7-0.8-13.7-5.8-15.6-9.5c-1.9-3.7-1.2-5.2-8.1-5.2
	c-6.8,0-18.6,2.2-22.1,2.7c-6.4,0.8-5.3,2.1-9.8-1.7c-6.6-5.6-10.3-9.1-11.1-10c-0.8-0.8-2.6-1.5-1.1-5.1c1.5-3.6,4.1-9.9,10.9-18.3
	c6.8-8.4,8.2-10,10.3-11.7c5.3-4.1,3-4.4,8.3-0.2c4.4,3.5,8.8,7.1,11.9,8.6c3.1,1.5,3.7,1.9,5.8,6.8c2.1,4.9,4.4,8.6,5.1,10
	c0.7,1.4,5.5,5.7,9.4,5.9c6.6,0.3,12,0.6,16-4.3c1.8-4.5,2.7-7.8,5.2-10.4c1-0.8,1.6-1.9,0.1-1.9c-1.5,0-9.8-0.5-12.6-1.2
	c-2.7-0.7-24.6-7.3-27.5-8.7c-2.9-1.4-16-6.4-22.9-15.4c-6.9-9-7.7-12-11-24.1C29.4,256.8,29.3,239.8,29.5,240"/>
<path class="st0" d="M152.9,315.9c-0.1,2.4,0,21,4.3,26.4c1.2,1,1.8,2.2,0.7,2.3c-1.1,0.1-9.1-0.1-10-0.1c-0.8,0-2.2-0.3-2,2.2
	c0.2,3-0.5,8.9-5.4,10.8c-4.7,1.9-9.3,3.9-18.2-1c-3-2.2-3.6-2.9-3.8-3.3c-0.3-0.4-0.6-0.8,0-1.5c0.5-0.7,5.8-6,6.8-8.2
	c0.9-2.2,0.5-2.5-0.1-3.8c0.5,0.9-3.5-5.2,0-4.7c2.7,0.4,8.6,2,13.1,0.1c4.5-1.9,9-4,10.7-14c0.1-3.7,0.1-4.5,1.9-6
	C152,313.7,153,311.7,152.9,315.9"/>
<path class="st0" d="M161.2,349.8c4.6,2.3,12.3,6.8,14.1,10.9c0.7,1.2,1.1,3.4-1.2,1c-2.3-2.5-6.6-8.1-18.2-10.2
	c-3.2-0.1-7.4,0.2-6.8-2.7c0.3-1.3-0.2-2.7,4.5-1.5C157.8,348.3,161.2,349.8,161.2,349.8"/>
<path class="st0" d="M157.4,355.7c5.5,2.8,9.4,6.8,10.1,7.9c0.7,1.1,1.2,1.6,0.4,2.2c-0.8,0.5-1.2,0.1-2.2-0.8c-1-1-6.9-5.9-17-8.4
	c-1.8-0.5-2.6-1.2-1-2.6c1.6-1.4,1.8-1,3.4-0.4C152.9,354,157.1,355.5,157.4,355.7"/>
<path class="st0" d="M153.1,363.3c3.4,2.5,7.3,6.8,8.1,7.8c0.8,1,0.7,1-0.7,0.8c-1.4-0.1-3.3-2.9-5.2-4c-1.9-1.1-8.8-5.4-10.4-6
	c-1.6-0.5-2.3-0.8-1.2-2.2c1.1-1.4,1.1-1.2,2.3-0.7C147.2,359.7,153.1,363.3,153.1,363.3"/>
<g>
	<path class="st0" d="M125.1,361.1c0.8,0.5,2.6,1.1,1.4,4.2c-1.2,3.2-2,5.1-5.7,7.7c-1.4,1-5.3,3.6-1.8-1.4c1.6-3.4,2.4-5.2,2.4-9.6
		c0-1.5-0.2-2.2,2-1.9C124.1,360.6,125.1,361.1,125.1,361.1"/>
	<path class="st0" d="M95.4,379.3c1.9,4,4.6,7.2,8.5,7.2c5,0,8.9-2.8,10.4-5.1c0.1,2.7-0.7,4-1.2,5.1c-0.5,1.1-1.4,2.6-0.3,4.5
		c1.1,1.9,0.6,4.7,0,6.3c-0.5,1.6-2,5.8-8.5,5.8c-6.4,0-14.9,0.1-18.6-1.4c-2.2-0.9-3.2-0.3-3-5.5c0.1-4.7,0.8-7.4,1.2-9.2
		c0.4-1.8,0.8-2.6,3.5-2.6c2.7,0,2.5,0.1,3.5,0c1.1-0.1,1.4-0.6,1.4-1.9c0-1.4,0.3-4,1.2-5.5c0.9-1.5,1.2-1,1.4-0.1L95.4,379.3z"/>
</g>
<g>
	<path class="st0" d="M104.5,362.3c-0.7,2.9-2.4,9.3-4.7,12.2c-0.8-3.6-1.7-7.4-1.7-8.8c0-1.4-1.4-2,3.7-4.3
		C105.8,359.7,104.5,362.3,104.5,362.3"/>
	<path class="st0" d="M51,377.3c2.2-3.4,16.1-14.4,17.7-15.1c0,0,2.3-1.4,4.4-1.9c4.1-1.1,4.1,1.3,2.6,2.9c-4.8,1.9-12,6.7-17,10.3
		c-3.8,2.8-9.5,8.8-11.4,11c-1,0.3-2.8,0.1-1.3-1.6C48,380.3,50.8,377.5,51,377.3"/>
	<path class="st0" d="M36.2,370.6c11-9.5,19.5-12.1,27.8-14.7c4.2-0.8,7.9-1.7,8.7,0.5c0.6,1.4,0.3,2-1.1,2.2
		c-5.9,0.3-16,2.5-25.9,8.4c-4,2.3-8.9,6.2-10.5,7.9c-1.1,1.1-4.2,0.2-1.9-1.8C35.8,371.1,36.2,370.6,36.2,370.6"/>
	<path class="st0" d="M33.7,357.6c9.3-4.8,16.2-6.4,22.9-7.9c0,0,8.9-1.5,12.7-0.5c3.2,4,1.2,3.6-1.2,3.7
		c-8.3-0.1-16.8,1.6-24.4,4.1c-7.6,2.5-16.8,7.1-19.8,8.4c-1.1,0.5-2.1,0.4-1.7-0.7c0.3-1,2.3-2.2,3.2-2.6
		C26.1,361.7,33.7,357.6,33.7,357.6"/>
	<path class="st0" d="M613.5,390.3c-4.2,0-7.3-3.3-7.3-7.5c0-4.2,3.1-7.5,7.3-7.5c4.2,0,7.2,3.3,7.2,7.5
		C620.7,387,617.7,390.3,613.5,390.3 M613.5,391.4c4.7,0,8.6-3.9,8.6-8.6c0-4.7-3.8-8.6-8.6-8.6c-4.8,0-8.6,3.9-8.6,8.6
		C604.9,387.5,608.7,391.4,613.5,391.4 M614.9,383.2c1.7,0,3-0.7,3-2.6c0-1.6-0.9-2.5-3.4-2.5h-4.2v9.6h1.2v-4.4h2.2l2.8,4.4h1.4
		L614.9,383.2z M611.5,382.2v-3.4h2.7c1.2,0,2.4,0.2,2.4,1.7c0,1.9-2,1.7-3.4,1.7H611.5z"/>
</g>
</svg>
